<svg width="19" height="19" viewBox="0 0 19 19" fill="none" xmlns="http://www.w3.org/2000/svg">
<path d="M9.5 9.5C10.6437 9.5 11.7406 9.04565 12.5494 8.2369C13.3581 7.42815 13.8125 6.33125 13.8125 5.1875C13.8125 4.04375 13.3581 2.94685 12.5494 2.1381C11.7406 1.32935 10.6437 0.875 9.5 0.875C8.35625 0.875 7.25935 1.32935 6.4506 2.1381C5.64185 2.94685 5.1875 4.04375 5.1875 5.1875C5.1875 6.33125 5.64185 7.42815 6.4506 8.2369C7.25935 9.04565 8.35625 9.5 9.5 9.5V9.5ZM12.375 5.1875C12.375 5.95 12.0721 6.68127 11.5329 7.22043C10.9938 7.7596 10.2625 8.0625 9.5 8.0625C8.7375 8.0625 8.00623 7.7596 7.46707 7.22043C6.9279 6.68127 6.625 5.95 6.625 5.1875C6.625 4.425 6.9279 3.69373 7.46707 3.15457C8.00623 2.6154 8.7375 2.3125 9.5 2.3125C10.2625 2.3125 10.9938 2.6154 11.5329 3.15457C12.0721 3.69373 12.375 4.425 12.375 5.1875V5.1875ZM18.125 16.6875C18.125 18.125 16.6875 18.125 16.6875 18.125H2.3125C2.3125 18.125 0.875 18.125 0.875 16.6875C0.875 15.25 2.3125 10.9375 9.5 10.9375C16.6875 10.9375 18.125 15.25 18.125 16.6875ZM16.6875 16.6818C16.6861 16.3281 16.4661 15.2644 15.4915 14.2897C14.5543 13.3525 12.7904 12.375 9.5 12.375C6.20813 12.375 4.44575 13.3525 3.5085 14.2897C2.53388 15.2644 2.31538 16.3281 2.3125 16.6818H16.6875Z" fill="#222529"/>
</svg>
